<?xml version="1.0" encoding="utf-8"?>
<!DOCTYPE svg PUBLIC "-//W3C//DTD SVG 1.1//EN" "http://www.w3.org/Graphics/SVG/1.1/DTD/svg11.dtd">
<svg version="1.1" id="图形" xmlns="http://www.w3.org/2000/svg" xmlns:xlink="http://www.w3.org/1999/xlink" x="0px" y="0px" width="1024px" height="1024px" viewBox="0 0 1024 1024" enable-background="new 0 0 1024 1024" xml:space="preserve">
  <path fill="#a1a1a2" d="M747.991294-36.496847 277.633716-36.496847l-161.553443 163.677826c-7.939833 8.04421-7.854898 21.002336 0.189312 28.943193 8.045233 7.939833 21.002336 7.855922 28.943193-0.189312l149.531642-151.500483 436.291714 0 150.571321 150.572344c7.993045 7.993045 20.952194 7.993045 28.944216 0s7.993045-20.952194 0-28.944216L747.991294-36.496847zM337.354889 108.812633c-11.30344 0-20.466124 9.162684-20.466124 20.466124L316.888765 669.873002c0 11.30344 9.162684 20.466124 20.466124 20.466124s20.466124-9.162684 20.466124-20.466124l0-540.594245C357.821013 117.975317 348.65833 108.812633 337.354889 108.812633zM470.464513 526.530316c-5.238304 0-10.475586 1.998517-14.471596 5.994528L337.354889 651.162872 218.716862 532.524844c-7.993045-7.993045-20.951171-7.993045-28.943193 0s-7.993045 20.951171 0 28.943193L322.883293 694.57766c7.993045 7.993045 20.951171 7.993045 28.943193 0l133.109624-133.109624c7.993045-7.993045 7.993045-20.951171 0-28.943193C480.940099 528.528833 475.702817 526.530316 470.464513 526.530316zM683.232384 119.045695c-11.30344 0-20.466124 9.162684-20.466124 20.466124L662.76626 680.106064c0 11.30344 9.162684 20.466124 20.466124 20.466124s20.466124-9.162684 20.466124-20.466124l0-540.594245C703.698508 128.208379 694.535825 119.045695 683.232384 119.045695zM683.232384 107.789327c-0.161682 0-0.323365 0.002047-0.487094 0.00614-5.595438 0.13303-10.892071 2.551102-14.656815 6.692423L534.978852 260.900493c-7.603165 8.363482-6.987135 21.307282 1.376347 28.910447 8.364505 7.603165 21.307282 6.988158 28.91147-1.376347l118.671797-130.530892 117.931946 117.932969c7.993045 7.993045 20.952194 7.993045 28.944216 0 7.992021-7.993045 7.992021-20.952194 0-28.944216L697.703981 113.782831C693.861466 109.940316 688.653861 107.789327 683.232384 107.789327z" transform="translate(0, 812) scale(1, -1)"/>
</svg>
