<?xml version="1.0" encoding="utf-8"?>
<!DOCTYPE svg PUBLIC "-//W3C//DTD SVG 1.1//EN" "http://www.w3.org/Graphics/SVG/1.1/DTD/svg11.dtd">
<svg version="1.1" id="图形" xmlns="http://www.w3.org/2000/svg" xmlns:xlink="http://www.w3.org/1999/xlink" x="0px" y="0px" width="1024px" height="1024px" viewBox="0 0 1024 1024" enable-background="new 0 0 1024 1024" xml:space="preserve">
  <path fill="#a1a1a2" d="M513.363556 308.201799c-109.465111 0-198.521402 89.056292-198.521402 198.521402s89.056292 198.521402 198.521402 198.521402c109.465111 0 198.521402-89.056292 198.521402-198.521402S622.828666 308.201799 513.363556 308.201799zM513.363556 664.312356c-86.895069 0-157.589155-70.694085-157.589155-157.589155s70.694085-157.589155 157.589155-157.589155 157.589155 70.694085 157.589155 157.589155S600.258625 664.312356 513.363556 664.312356zM513.363556-36.496847c-71.082942 0-149.541875 21.029966-233.19511 62.504566-61.841463 30.661324-102.752222 61.036122-104.462167 62.314231-4.753257 3.549849-7.732102 8.987698-8.16496 14.903431-0.432859 5.916756 1.723248 11.730159 5.90857 15.933901l194.428178 195.280592c7.974625 8.010441 20.933775 8.037047 28.943193 0.063445 8.009418-7.974625 8.03807-20.933775 0.063445-28.943193L219.766774 107.66653c17.309224-11.358699 45.100174-28.431539 79.319533-45.349861 53.40635-26.405393 133.933385-57.881268 214.276225-57.881268 122.619712 0 242.406912 74.810846 287.597137 106.467847l-181.043333 174.355003c-8.142447 7.840572-8.385994 20.796652-0.544399 28.938076 7.840572 8.142447 20.797675 8.383948 28.937053 0.544399l198.521402-191.187367c4.238534-4.079922 6.514367-9.7869 6.248308-15.664771-0.265036-5.876847-3.047406-11.355629-7.634888-15.037485-1.64957-1.324158-41.11849-32.810267-101.522208-64.574714C687.730838-1.272601 602.116949-36.496847 513.363556-36.496847z" transform="translate(0, 812) scale(1, -1)"/>
</svg>
