<?xml version="1.0" encoding="utf-8"?>
<!DOCTYPE svg PUBLIC "-//W3C//DTD SVG 1.1//EN" "http://www.w3.org/Graphics/SVG/1.1/DTD/svg11.dtd">
<svg version="1.1" id="图形" xmlns="http://www.w3.org/2000/svg" xmlns:xlink="http://www.w3.org/1999/xlink" x="0px" y="0px" width="1024px" height="1024px" viewBox="0 0 1024 1024" enable-background="new 0 0 1024 1024" xml:space="preserve">
  <path fill="#a1a1a2" d="M914.158824-18.665737c0 11.30344-9.162684 20.466124-20.466124 20.466124l-742.9203 0 0 67.103304 41.017182 0c11.30344 0 20.466124 9.162684 20.466124 20.466124s-9.162684 20.466124-20.466124 20.466124l-41.017182 0 0 54.235229 105.741299 0c11.30344 0 20.466124 9.162684 20.466124 20.466124s-9.162684 20.466124-20.466124 20.466124L150.7724 205.003416l0 54.746882 41.017182 0c11.30344 0 20.466124 9.162684 20.466124 20.466124s-9.162684 20.466124-20.466124 20.466124l-41.017182 0 0 55.770188 105.741299 0c11.30344 0 20.466124 9.162684 20.466124 20.466124s-9.162684 20.466124-20.466124 20.466124L150.7724 397.384981l0 56.281841 41.614793 0c11.30344 0 20.466124 9.162684 20.466124 20.466124s-9.162684 20.466124-20.466124 20.466124l-41.614793 0 0 55.258535 105.741299 0c11.30344 0 20.466124 9.162684 20.466124 20.466124s-9.162684 20.466124-20.466124 20.466124L150.7724 590.789852 150.7724 718.114726c0 11.30344-9.162684 20.466124-20.466124 20.466124s-20.466124-9.162684-20.466124-20.466124l0-757.246587 783.852548 0C904.996141-39.131861 914.158824-29.969177 914.158824-18.665737zM865.93245 637.378937l-147.736762-6.085602c-11.293207-0.465604-20.071128-9.997702-19.606547-21.290909 0.465604-11.294231 10.025331-20.093641 21.291932-19.606547l77.337389 3.185552L499.473197 216.184059l-114.224508 49.095161L249.842767 95.287595c-7.042393-8.842389-5.584182-21.717627 3.257184-28.760021 3.767813-3.00238 8.268314-4.458545 12.738116-4.458545 6.018064 0 11.980869 2.644223 16.021905 7.716752l115.935476 145.546887 114.363677-49.154513L827.888995 566.372743l3.229554-78.413907c0.453325-11.006681 9.519818-19.623943 20.434401-19.623943 0.284479 0 0.571005 0.00614 0.857531 0.01842 11.293207 0.465604 20.071128 9.997702 19.606547 21.290909L865.93245 637.378937z" transform="translate(0, 812) scale(1, -1)"/>
</svg>
