<?xml version="1.0" encoding="utf-8"?>
<!DOCTYPE svg PUBLIC "-//W3C//DTD SVG 1.1//EN" "http://www.w3.org/Graphics/SVG/1.1/DTD/svg11.dtd">
<svg version="1.1" id="图形" xmlns="http://www.w3.org/2000/svg" xmlns:xlink="http://www.w3.org/1999/xlink" x="0px" y="0px" width="1024px" height="1024px" viewBox="0 0 1024 1024" enable-background="new 0 0 1024 1024" xml:space="preserve">
  <path fill="#a1a1a2" d="M511.973906 597.949926c-9.843182 0-18.522865 7.120165-20.170388 17.150612-1.832741 11.153014 5.723352 21.680788 16.876366 23.51353l386.127198 63.444984c11.153014 1.832741 21.681812-5.723352 23.514553-16.877389s-5.723352-21.680788-16.876366-23.51353l-386.127198-63.444984C514.19448 598.038954 513.07703 597.949926 511.973906 597.949926zM898.126686 26.867296c-11.30344 0-20.466124 9.162684-20.466124 20.466124L877.660562 681.864104c0 11.302417 9.162684 20.466124 20.466124 20.466124s20.466124-9.163707 20.466124-20.466124l0-634.530684C918.59281 36.02998 909.430126 26.867296 898.126686 26.867296zM511.973906-18.451866c-10.236132 0-19.078521 7.66661-20.300348 18.082844-1.318018 11.225669 6.714935 21.394263 17.941628 22.711258l386.126174 45.317115c11.208273 1.332345 21.394263-6.714935 22.711258-17.940604 1.318018-11.225669-6.714935-21.394263-17.940604-22.711258l-386.126174-45.317115C513.576403-18.405817 512.771061-18.451866 511.973906-18.451866zM512.000512-18.449819c-11.30344 0-20.466124 9.162684-20.466124 20.466124l-0.001023 616.402815c0 11.30344 9.162684 20.466124 20.466124 20.466124s20.466124-9.162684 20.466124-20.466124l0.001023-616.402815C532.466636-9.287135 523.303952-18.449819 512.000512-18.449819zM512.024048 597.949926c-1.11745 0-2.246157 0.091074-3.385097 0.280386l-381.241934 63.444984c-11.149944 1.855254-18.684548 12.398378-16.82827 23.548322 1.855254 11.149944 12.391215 18.686594 23.548322 16.82827l381.241934-63.444984c11.149944-1.855254 18.684548-12.398378 16.82827-23.548322C530.521331 605.047578 521.848811 597.949926 512.024048 597.949926zM130.757554 26.867296c-11.30344 0-20.466124 9.162684-20.466124 20.466124L110.29143 681.864104c0 11.302417 9.162684 20.466124 20.466124 20.466124s20.466124-9.163707 20.466124-20.466124l0-634.530684C151.223678 36.02998 142.060995 26.867296 130.757554 26.867296zM512.026094-18.451866c-0.806365 0-1.620917 0.048095-2.441609 0.145309l-381.242957 45.317115c-11.223622 1.334391-19.241226 11.515265-17.907858 22.738887 1.334391 11.224646 11.507078 19.23304 22.738887 17.907858l381.241934-45.317115c11.224646-1.334391 19.24225-11.515265 17.907858-22.738887C531.086196-10.803675 522.248923-18.451866 512.026094-18.451866zM580.453556 504.212008c-9.896394 0-18.59859 7.192819-20.189831 17.277502-1.763157 11.165294 5.858428 21.644973 17.023722 23.408129l233.301534 36.838c11.163247 1.763157 21.643949-5.859451 23.407106-17.023722s-5.858428-21.644973-17.023722-23.408129l-233.301534-36.838C582.59022 504.294896 581.514725 504.212008 580.453556 504.212008zM580.453556 367.709101c-9.896394 0-18.59859 7.192819-20.189831 17.277502-1.763157 11.164271 5.858428 21.644973 17.023722 23.408129l233.301534 36.838c11.163247 1.763157 21.643949-5.859451 23.407106-17.023722s-5.858428-21.644973-17.023722-23.408129l-233.301534-36.838C582.59022 367.791989 581.514725 367.709101 580.453556 367.709101zM580.453556 231.206194c-9.896394 0-18.59859 7.192819-20.189831 17.277502-1.763157 11.164271 5.858428 21.643949 17.023722 23.407106l233.301534 36.838c11.163247 1.763157 21.643949-5.859451 23.407106-17.023722s-5.858428-21.644973-17.023722-23.408129l-233.301534-36.836977C582.59022 231.289082 581.514725 231.206194 580.453556 231.206194zM580.453556 94.703287c-9.896394 0-18.59859 7.192819-20.189831 17.277502-1.763157 11.164271 5.858428 21.643949 17.023722 23.407106l233.301534 36.838c11.163247 1.769296 21.643949-5.859451 23.407106-17.023722s-5.858428-21.643949-17.023722-23.407106l-233.301534-36.838C582.59022 94.786175 581.514725 94.703287 580.453556 94.703287zM438.054359 504.212008c-1.061169 0-2.13564 0.082888-3.217275 0.25378l-233.301534 36.838c-11.165294 1.763157-18.786878 12.242835-17.023722 23.408129 1.763157 11.165294 12.243859 18.788925 23.408129 17.023722l233.301534-36.838c11.165294-1.763157 18.786878-12.242835 17.023722-23.408129C456.652949 511.405851 447.950753 504.212008 438.054359 504.212008zM438.054359 367.709101c-1.061169 0-2.13564 0.082888-3.217275 0.25378l-233.301534 36.838c-11.165294 1.763157-18.786878 12.242835-17.023722 23.408129 1.763157 11.165294 12.243859 18.782785 23.408129 17.023722l233.301534-36.838c11.165294-1.763157 18.786878-12.242835 17.023722-23.408129C456.652949 374.902944 447.950753 367.709101 438.054359 367.709101zM438.054359 231.206194c-1.061169 0-2.13564 0.082888-3.217275 0.25378l-233.301534 36.836977c-11.165294 1.763157-18.786878 12.242835-17.023722 23.408129 1.763157 11.165294 12.243859 18.780739 23.408129 17.023722l233.301534-36.838c11.165294-1.763157 18.786878-12.242835 17.023722-23.407106C456.652949 238.40106 447.950753 231.206194 438.054359 231.206194zM438.054359 94.703287c-1.061169 0-2.13564 0.082888-3.217275 0.25378L201.535551 131.795067c-11.165294 1.763157-18.786878 12.242835-17.023722 23.407106 1.763157 11.164271 12.243859 18.783809 23.408129 17.023722l233.301534-36.838c11.165294-1.763157 18.786878-12.242835 17.023722-23.407106C456.652949 101.89713 447.950753 94.703287 438.054359 94.703287z" transform="translate(0, 812) scale(1, -1)"/>
</svg>
