<?xml version="1.0" encoding="utf-8"?>
<!DOCTYPE svg PUBLIC "-//W3C//DTD SVG 1.1//EN" "http://www.w3.org/Graphics/SVG/1.1/DTD/svg11.dtd">
<svg version="1.1" id="图形" xmlns="http://www.w3.org/2000/svg" xmlns:xlink="http://www.w3.org/1999/xlink" x="0px" y="0px" width="1024px" height="1024px" viewBox="0 0 1024 1024" enable-background="new 0 0 1024 1024" xml:space="preserve">
  <path fill="#a1a1a2" d="M830.588477-34.450235l-638.543068 0c-11.30344 0-20.466124 9.162684-20.466124 20.466124l0 597.61082c0 8.882298 5.729491 16.750499 14.183024 19.47761l317.224922 102.33062c4.021593 1.296529 8.345062 1.316995 12.380982 0.059352l321.318146-100.284007c8.547677-2.667759 14.368242-10.582009 14.368242-19.536962l0-599.657432C851.054601-25.287551 841.891917-34.450235 830.588477-34.450235zM212.511533 6.482013l597.61082 0L810.122353 570.620487l-300.749692 93.864808-296.861128-95.762017L212.511533 6.482013zM701.651896 82.206672l-380.669906 0c-11.30344 0-20.466124 9.162684-20.466124 20.466124l0 323.364759c0 6.217608 2.826372 12.097526 7.680936 15.980973l122.796744 98.237395c3.628644 2.90312 8.138354 4.485151 12.785188 4.485151l133.029806 0c4.447289 0 8.771781-1.447978 12.322653-4.125971l124.843356-94.14417c5.128811-3.867074 8.143471-9.91686 8.143471-16.340153l0-327.457983C722.11802 91.369356 712.955336 82.206672 701.651896 82.206672zM341.448114 123.13892l339.737658 0L681.185772 419.931486l-111.228267 83.877339L450.957227 503.808826l-109.510136-87.60729L341.447091 123.13892z" transform="translate(0, 812) scale(1, -1)"/>
</svg>
